<svg xmlns="http://www.w3.org/2000/svg" version="1.1" xmlns:xlink="http://www.w3.org/1999/xlink" width="200" height="200"><svg xmlns="http://www.w3.org/2000/svg" version="1.1" xmlns:xlink="http://www.w3.org/1999/xlink" viewBox="0 0 200 200"><rect width="200" height="200" fill="url('#gradient')"></rect><defs><linearGradient id="SvgjsLinearGradient1001" gradientTransform="rotate(0 0.5 0.5)"><stop offset="0%" stop-color="#664034"></stop><stop offset="100%" stop-color="#664034"></stop></linearGradient></defs><g><g fill="#3b555c" transform="matrix(7.256692913385827,0,0,7.256692913385827,2.544882363972704,150.87113452145434)" stroke="#ecdfa5" stroke-width="0.3"><path d="M8.80-14.22L12.23-14.22L12.23-4.91Q12.23-3.33 11.55-2.17Q10.88-1.02 9.62-0.41Q8.36 0.20 6.64 0.20L6.64 0.20Q4.04 0.20 2.55-1.15Q1.05-2.50 1.03-4.84L1.03-4.84L1.03-14.22L4.47-14.22L4.47-4.78Q4.53-2.44 6.64-2.44L6.64-2.44Q7.71-2.44 8.25-3.03Q8.80-3.61 8.80-4.93L8.80-4.93L8.80-14.22ZM22.16 0L19.65-5.02L17.79-5.02L17.79 0L14.37 0L14.37-14.22L19.96-14.22Q22.49-14.22 23.92-13.10Q25.34-11.97 25.34-9.92L25.34-9.92Q25.34-8.44 24.74-7.46Q24.14-6.48 22.86-5.88L22.86-5.88L25.83-0.15L25.83 0L22.16 0ZM17.79-11.57L17.79-7.67L19.96-7.67Q20.94-7.67 21.43-8.18Q21.92-8.69 21.92-9.61Q21.92-10.53 21.43-11.05Q20.93-11.57 19.96-11.57L19.96-11.57L17.79-11.57Z"></path></g></g></svg><style>@media (prefers-color-scheme: light) { :root { filter: none; } }
@media (prefers-color-scheme: dark) { :root { filter: none; } }
</style></svg>